<?xml version="1.0" encoding="utf-8"?>
<!-- Generator: Adobe Illustrator 16.0.4, SVG Export Plug-In . SVG Version: 6.00 Build 0)  -->
<!DOCTYPE svg PUBLIC "-//W3C//DTD SVG 1.1//EN" "http://www.w3.org/Graphics/SVG/1.1/DTD/svg11.dtd">
<svg version="1.1" id="Layer_1" xmlns="http://www.w3.org/2000/svg" xmlns:xlink="http://www.w3.org/1999/xlink" x="0px" y="0px"
	 width="346.534px" height="80.818px" viewBox="0 0 346.534 80.818" enable-background="new 0 0 346.534 80.818"
	 xml:space="preserve">
<linearGradient id="SVGID_1_" gradientUnits="userSpaceOnUse" x1="32.3491" y1="64.9761" x2="24.018" y2="131.625">
	<stop  offset="0.1518" style="stop-color:#8DBC43"/>
	<stop  offset="0.6597" style="stop-color:#45A84C"/>
	<stop  offset="1" style="stop-color:#039345"/>
</linearGradient>
<path fill="url(#SVGID_1_)" d="M26.088,75.476l-19.602-33.6c7.501,0.875,21.929,1.497,34.72,1.668l-0.2-0.33l1.781-1.039
	l-0.011-2.342l-2.302-1.315l0.688-1.164c-12.797,0.289-27.225,1.042-34.708,1.986L25.781,5.514l35.66-0.16
	c0.948-1.34,1.799-2.499,2.536-3.451C64.483,1.25,64.994,0.592,65.517,0L24.212,0.188c-0.063,0-0.123,0.015-0.185,0.02
	c-0.003,0-0.007,0.001-0.01,0.001c-0.348,0.027-0.675,0.118-0.972,0.266c-0.005,0.002-0.009,0.005-0.015,0.008
	c-0.144,0.073-0.281,0.156-0.408,0.253c-0.021,0.016-0.04,0.034-0.061,0.05c-0.111,0.09-0.216,0.185-0.311,0.291
	c-0.029,0.031-0.054,0.066-0.081,0.099c-0.083,0.101-0.159,0.206-0.227,0.318c-0.011,0.019-0.026,0.033-0.037,0.052L0.343,39.284
	c-0.01,0.018-0.015,0.037-0.024,0.055c-0.058,0.107-0.104,0.217-0.147,0.331c-0.021,0.055-0.043,0.109-0.061,0.165
	c-0.032,0.105-0.052,0.212-0.071,0.321c-0.011,0.063-0.025,0.125-0.031,0.189C-0.001,40.45,0,40.556,0.002,40.662
	c0.001,0.065,0,0.13,0.006,0.196c0.01,0.102,0.031,0.201,0.052,0.302c0.015,0.07,0.027,0.14,0.048,0.209
	c0.026,0.087,0.062,0.172,0.097,0.257c0.034,0.081,0.067,0.161,0.108,0.238c0.015,0.027,0.022,0.057,0.039,0.084l21.901,37.54
	c0.237,0.407,0.576,0.747,0.985,0.98c0.392,0.224,0.848,0.353,1.333,0.35l41.243-0.188c-1.156-1.312-2.571-3.156-4.129-5.315
	L26.088,75.476z"/>
<path fill="#004983" d="M92.239,39.898c-0.005-0.041-0.015-0.081-0.021-0.122c-0.021-0.128-0.048-0.253-0.087-0.376
	c-0.015-0.047-0.035-0.092-0.052-0.139c-0.045-0.118-0.095-0.232-0.156-0.343c-0.011-0.019-0.016-0.039-0.026-0.057L71.245,3.461
	c-0.236,0.701-0.521,1.421-0.806,2.135c-0.459,1.153-1.045,2.52-1.747,4.077l17.824,30.553L68.912,71.039
	c0.779,1.678,1.423,3.137,1.923,4.357c0.245,0.6,0.489,1.203,0.705,1.796l20.375-35.662c0.025-0.044,0.038-0.092,0.061-0.137
	c0.017-0.032,0.029-0.066,0.044-0.099c0.058-0.129,0.108-0.259,0.145-0.392c0.006-0.024,0.01-0.049,0.016-0.074
	c0.034-0.143,0.06-0.285,0.07-0.429c0.002-0.029,0-0.058,0.002-0.087C92.257,40.174,92.255,40.036,92.239,39.898z"/>
<path fill="#289445" d="M52.421,44.933c0.085-0.131,0.175-0.258,0.253-0.396c1.571-2.75,1.299-6.043-0.416-8.471
	c8.469-15.603,17.287-33.494,16.031-34.21c-1.25-0.714-12.093,15.816-21.209,30.98c-3.156-0.51-6.437,0.931-8.115,3.869
	c-2.164,3.786-0.848,8.609,2.938,10.772c1.718,0.981,3.648,1.24,5.447,0.882c9.261,15.104,20.291,31.595,21.536,30.868
	C70.143,78.494,61.07,60.511,52.421,44.933z"/>
<g>
	<path fill="#289445" d="M154.515,64.591V18.304h10.164v46.287H154.515z"/>
	<polygon fill="#004983" points="346.534,55.526 346.534,55.524 329.916,55.524 329.916,18.304 319.75,18.304 319.75,64.591 
		341.11,64.591 	"/>
	<path fill="#289445" d="M209.321,18.785c-1.695-0.457-3.39-0.766-5.083-0.927c-1.695-0.159-3.274-0.239-4.739-0.239
		c-2.517,0-4.864,0.298-7.04,0.892c-2.174,0.595-4.063,1.476-5.664,2.645c-1.604,1.167-2.851,2.609-3.744,4.325
		c-0.893,1.717-1.339,3.721-1.339,6.01c0,2.334,0.469,4.292,1.407,5.871c0.938,1.581,2.118,2.907,3.537,3.983
		c1.42,1.076,2.953,1.992,4.602,2.747c1.648,0.755,3.182,1.5,4.601,2.232c1.418,0.733,2.599,1.522,3.536,2.37
		c0.938,0.847,1.408,1.914,1.408,3.193c0,1.557-0.424,2.758-1.271,3.606c-0.847,0.845-2.232,1.27-4.155,1.27
		c-1.878,0-3.904-0.206-6.078-0.618c-1.119-0.212-2.171-0.468-3.162-0.765l-4.626,7.73c-0.002,0.014-0.005,0.026-0.008,0.04
		c1.925,0.823,4.018,1.385,6.286,1.684c2.265,0.297,4.381,0.445,6.351,0.445c2.473,0,4.761-0.298,6.868-0.892
		c2.105-0.595,3.915-1.488,5.426-2.68c1.511-1.189,2.689-2.678,3.537-4.463c0.846-1.786,1.27-3.89,1.27-6.318
		c0-2.242-0.47-4.132-1.407-5.666c-0.939-1.534-2.119-2.85-3.537-3.95c-1.419-1.098-2.943-2.036-4.567-2.814
		c-1.624-0.778-3.148-1.534-4.565-2.266c-1.42-0.732-2.601-1.511-3.538-2.335c-0.94-0.825-1.407-1.832-1.407-3.022
		c0-1.512,0.422-2.678,1.27-3.502c0.847-0.824,2.186-1.237,4.019-1.237c0.731,0,1.556,0.035,2.472,0.104
		c0.916,0.068,1.842,0.161,2.782,0.274c0.599,0.072,1.198,0.171,1.797,0.264l4.758-7.953
		C209.317,18.81,209.319,18.797,209.321,18.785z"/>
	<polygon fill="#289445" points="119.628,55.664 119.628,45.361 126.177,45.361 131.437,36.572 119.628,36.572 119.628,27.232 
		131.156,27.232 136.498,18.304 109.465,18.304 109.465,64.591 132.345,64.591 137.687,55.664 	"/>
	<polygon fill="#004983" points="288.232,55.664 288.232,45.361 294.779,45.361 300.04,36.572 288.232,36.572 288.232,27.232 
		299.758,27.232 305.102,18.304 278.067,18.304 278.067,64.591 300.948,64.591 306.291,55.664 	"/>
	<polygon fill="#004983" points="261.288,18.304 229.176,18.304 223.835,27.232 237.187,27.232 237.187,64.591 247.35,64.591 
		247.35,27.232 255.946,27.232 	"/>
</g>
</svg>
